<?xml version="1.0" encoding="UTF-8"?><svg xmlns="http://www.w3.org/2000/svg" width="900" height="480" viewBox="0 0 900 480" role="img" aria-labelledby="figure-title"><title id="figure-title">BenchmarkScenes at 150 dpi, one core</title><defs><clipPath id="c1"><path d="M50.332,32.8 L721.936,32.8 L721.936,431.725 L50.332,431.725 Z"/></clipPath><path id="m2" d="M1.5,0 C1.5,0.828 0.828,1.5 0,1.5 C-0.828,1.5 -1.5,0.828 -1.5,0 C-1.5,-0.828 -0.828,-1.5 0,-1.5 C0.828,-1.5 1.5,-0.828 1.5,0 Z" fill="#0072b2"/><path id="m3" d="M1.5,0 C1.5,0.828 0.828,1.5 0,1.5 C-0.828,1.5 -1.5,0.828 -1.5,0 C-1.5,-0.828 -0.828,-1.5 0,-1.5 C0.828,-1.5 1.5,-0.828 1.5,0 Z" fill="#d55e00"/><path id="m4" d="M1.5,0 C1.5,0.828 0.828,1.5 0,1.5 C-0.828,1.5 -1.5,0.828 -1.5,0 C-1.5,-0.828 -0.828,-1.5 0,-1.5 C0.828,-1.5 1.5,-0.828 1.5,0 Z" fill="#009e73"/><path id="m5" d="M1.5,0 C1.5,0.828 0.828,1.5 0,1.5 C-0.828,1.5 -1.5,0.828 -1.5,0 C-1.5,-0.828 -0.828,-1.5 0,-1.5 C0.828,-1.5 1.5,-0.828 1.5,0 Z" fill="#f0e442"/><path id="m6" d="M1.5,0 C1.5,0.828 0.828,1.5 0,1.5 C-0.828,1.5 -1.5,0.828 -1.5,0 C-1.5,-0.828 -0.828,-1.5 0,-1.5 C0.828,-1.5 1.5,-0.828 1.5,0 Z" fill="#56b4e9"/><path id="m7" d="M1.5,0 C1.5,0.828 0.828,1.5 0,1.5 C-0.828,1.5 -1.5,0.828 -1.5,0 C-1.5,-0.828 -0.828,-1.5 0,-1.5 C0.828,-1.5 1.5,-0.828 1.5,0 Z" fill="#e69f00"/><path id="m8" d="M1.5,0 C1.5,0.828 0.828,1.5 0,1.5 C-0.828,1.5 -1.5,0.828 -1.5,0 C-1.5,-0.828 -0.828,-1.5 0,-1.5 C0.828,-1.5 1.5,-0.828 1.5,0 Z" fill="#cc79a7"/><path id="m9" d="M1.5,0 C1.5,0.828 0.828,1.5 0,1.5 C-0.828,1.5 -1.5,0.828 -1.5,0 C-1.5,-0.828 -0.828,-1.5 0,-1.5 C0.828,-1.5 1.5,-0.828 1.5,0 Z" fill="#000000"/></defs><path d="M0,0 L900,0 L900,480 L0,480 Z" fill="#ffffff"/><polyline fill="none" points="50.332,431.725 721.936,431.725" stroke="#dddddd"/><polyline fill="none" points="50.332,365.237 721.936,365.237" stroke="#dddddd"/><polyline fill="none" points="50.332,298.75 721.936,298.75" stroke="#dddddd"/><polyline fill="none" points="50.332,232.262 721.936,232.262" stroke="#dddddd"/><polyline fill="none" points="50.332,165.775 721.936,165.775" stroke="#dddddd"/><polyline fill="none" points="50.332,99.288 721.936,99.288" stroke="#dddddd"/><polyline fill="none" points="50.332,32.8 721.936,32.8" stroke="#dddddd"/><polyline fill="none" points="50.332,431.725 721.936,431.725" stroke="#333333"/><polyline fill="none" points="50.332,32.8 50.332,431.725" stroke="#333333"/><polyline fill="none" points="98.304,431.725 98.304,436.725" stroke="#333333"/><text x="98.304" y="440.725" font-family="sans-serif" font-size="11" text-anchor="middle" dominant-baseline="hanging" fill="#555555">v0.1.0</text><polyline fill="none" points="194.247,431.725 194.247,436.725" stroke="#333333"/><text x="194.247" y="440.725" font-family="sans-serif" font-size="11" text-anchor="middle" dominant-baseline="hanging" fill="#555555">v0.1.1</text><polyline fill="none" points="290.191,431.725 290.191,436.725" stroke="#333333"/><text x="290.191" y="440.725" font-family="sans-serif" font-size="11" text-anchor="middle" dominant-baseline="hanging" fill="#555555">v0.2.0</text><polyline fill="none" points="386.134,431.725 386.134,436.725" stroke="#333333"/><text x="386.134" y="440.725" font-family="sans-serif" font-size="11" text-anchor="middle" dominant-baseline="hanging" fill="#555555">v0.2.1</text><polyline fill="none" points="482.077,431.725 482.077,436.725" stroke="#333333"/><text x="482.077" y="440.725" font-family="sans-serif" font-size="11" text-anchor="middle" dominant-baseline="hanging" fill="#555555">v0.3.0</text><polyline fill="none" points="578.021,431.725 578.021,436.725" stroke="#333333"/><text x="578.021" y="440.725" font-family="sans-serif" font-size="11" text-anchor="middle" dominant-baseline="hanging" fill="#555555">v0.4.0</text><polyline fill="none" points="673.964,431.725 673.964,436.725" stroke="#333333"/><text x="673.964" y="440.725" font-family="sans-serif" font-size="11" text-anchor="middle" dominant-baseline="hanging" fill="#555555">main</text><polyline fill="none" points="45.332,431.725 50.332,431.725" stroke="#333333"/><text x="41.332" y="431.725" font-family="sans-serif" font-size="11" text-anchor="end" dominant-baseline="central" fill="#555555">0</text><polyline fill="none" points="45.332,365.237 50.332,365.237" stroke="#333333"/><text x="41.332" y="365.237" font-family="sans-serif" font-size="11" text-anchor="end" dominant-baseline="central" fill="#555555">10</text><polyline fill="none" points="45.332,298.75 50.332,298.75" stroke="#333333"/><text x="41.332" y="298.75" font-family="sans-serif" font-size="11" text-anchor="end" dominant-baseline="central" fill="#555555">20</text><polyline fill="none" points="45.332,232.262 50.332,232.262" stroke="#333333"/><text x="41.332" y="232.262" font-family="sans-serif" font-size="11" text-anchor="end" dominant-baseline="central" fill="#555555">30</text><polyline fill="none" points="45.332,165.775 50.332,165.775" stroke="#333333"/><text x="41.332" y="165.775" font-family="sans-serif" font-size="11" text-anchor="end" dominant-baseline="central" fill="#555555">40</text><polyline fill="none" points="45.332,99.288 50.332,99.288" stroke="#333333"/><text x="41.332" y="99.288" font-family="sans-serif" font-size="11" text-anchor="end" dominant-baseline="central" fill="#555555">50</text><polyline fill="none" points="45.332,32.8 50.332,32.8" stroke="#333333"/><text x="41.332" y="32.8" font-family="sans-serif" font-size="11" text-anchor="end" dominant-baseline="central" fill="#555555">60</text><text x="386.134" y="23.488" font-family="sans-serif" font-size="16" text-anchor="middle" fill="#1a1a1a">BenchmarkScenes at 150 dpi, one core</text><text x="386.134" y="465.516" font-family="sans-serif" font-size="12" text-anchor="middle" fill="#333333">release (all measured in one run, 2026-10-01)</text><text x="20.616" y="232.262" font-family="sans-serif" font-size="12" text-anchor="middle" fill="#333333" transform="rotate(-90 20.616 232.262)">ms/op</text><g clip-path="url(#c1)"><polyline fill="none" points="98.304,74.369 194.247,78.957 290.191,55.25 386.134,48.354 482.077,68.131 578.021,68.845 673.964,64.788" stroke="#0072b2" stroke-width="1.75" stroke-linecap="round" stroke-linejoin="round"/><use href="#m2" x="98.304" y="74.369"/><use href="#m2" x="194.247" y="78.957"/><use href="#m2" x="290.191" y="55.25"/><use href="#m2" x="386.134" y="48.354"/><use href="#m2" x="482.077" y="68.131"/><use href="#m2" x="578.021" y="68.845"/><use href="#m2" x="673.964" y="64.788"/><polyline fill="none" points="98.304,180.665 194.247,182.658 290.191,177.886 386.134,160.949 482.077,177.667 578.021,174.238 673.964,178.161" stroke="#d55e00" stroke-width="1.75" stroke-linecap="round" stroke-linejoin="round"/><use href="#m3" x="98.304" y="180.665"/><use href="#m3" x="194.247" y="182.658"/><use href="#m3" x="290.191" y="177.886"/><use href="#m3" x="386.134" y="160.949"/><use href="#m3" x="482.077" y="177.667"/><use href="#m3" x="578.021" y="174.238"/><use href="#m3" x="673.964" y="178.161"/><polyline fill="none" points="98.304,141.841 194.247,130.669 290.191,143.152 386.134,130.911 482.077,165.111 578.021,169.089 673.964,171.265" stroke="#009e73" stroke-width="1.75" stroke-linecap="round" stroke-linejoin="round"/><use href="#m4" x="98.304" y="141.841"/><use href="#m4" x="194.247" y="130.669"/><use href="#m4" x="290.191" y="143.152"/><use href="#m4" x="386.134" y="130.911"/><use href="#m4" x="482.077" y="165.111"/><use href="#m4" x="578.021" y="169.089"/><use href="#m4" x="673.964" y="171.265"/><polyline fill="none" points="98.304,168.074 194.247,169.04 290.191,172.733 386.134,170.554 482.077,202.095 578.021,203.599 673.964,204.158" stroke="#f0e442" stroke-width="1.75" stroke-linecap="round" stroke-linejoin="round"/><use href="#m5" x="98.304" y="168.074"/><use href="#m5" x="194.247" y="169.04"/><use href="#m5" x="290.191" y="172.733"/><use href="#m5" x="386.134" y="170.554"/><use href="#m5" x="482.077" y="202.095"/><use href="#m5" x="578.021" y="203.599"/><use href="#m5" x="673.964" y="204.158"/><polyline fill="none" points="98.304,184.178 194.247,188.432 290.191,173.144 386.134,180.113 482.077,200.198 578.021,199.923 673.964,201.423" stroke="#56b4e9" stroke-width="1.75" stroke-linecap="round" stroke-linejoin="round"/><use href="#m6" x="98.304" y="184.178"/><use href="#m6" x="194.247" y="188.432"/><use href="#m6" x="290.191" y="173.144"/><use href="#m6" x="386.134" y="180.113"/><use href="#m6" x="482.077" y="200.198"/><use href="#m6" x="578.021" y="199.923"/><use href="#m6" x="673.964" y="201.423"/><polyline fill="none" points="98.304,215.871 194.247,230.101 290.191,220.935 386.134,217.553 482.077,232.855 578.021,232.254 673.964,228.29" stroke="#e69f00" stroke-width="1.75" stroke-linecap="round" stroke-linejoin="round"/><use href="#m7" x="98.304" y="215.871"/><use href="#m7" x="194.247" y="230.101"/><use href="#m7" x="290.191" y="220.935"/><use href="#m7" x="386.134" y="217.553"/><use href="#m7" x="482.077" y="232.855"/><use href="#m7" x="578.021" y="232.254"/><use href="#m7" x="673.964" y="228.29"/><polyline fill="none" points="98.304,269.537 194.247,269.66 290.191,245.172 386.134,237.347 482.077,247.279 578.021,263.179 673.964,266.497" stroke="#cc79a7" stroke-width="1.75" stroke-linecap="round" stroke-linejoin="round"/><use href="#m8" x="98.304" y="269.537"/><use href="#m8" x="194.247" y="269.66"/><use href="#m8" x="290.191" y="245.172"/><use href="#m8" x="386.134" y="237.347"/><use href="#m8" x="482.077" y="247.279"/><use href="#m8" x="578.021" y="263.179"/><use href="#m8" x="673.964" y="266.497"/><polyline fill="none" points="98.304,294.442 194.247,295.177 290.191,272.126 386.134,267.608 482.077,277.84 578.021,285.098 673.964,286.416" stroke="#000000" stroke-width="1.75" stroke-linecap="round" stroke-linejoin="round"/><use href="#m9" x="98.304" y="294.442"/><use href="#m9" x="194.247" y="295.177"/><use href="#m9" x="290.191" y="272.126"/><use href="#m9" x="386.134" y="267.608"/><use href="#m9" x="482.077" y="277.84"/><use href="#m9" x="578.021" y="285.098"/><use href="#m9" x="673.964" y="286.416"/></g><polyline fill="none" points="735.936,172.412 747.936,172.412" stroke="#0072b2" stroke-width="1.75" stroke-linecap="round"/><text x="753.936" y="172.412" font-family="sans-serif" font-size="12" dominant-baseline="central" fill="#333333">contours-3000</text><polyline fill="none" points="735.936,189.512 747.936,189.512" stroke="#d55e00" stroke-width="1.75" stroke-linecap="round"/><text x="753.936" y="189.512" font-family="sans-serif" font-size="12" dominant-baseline="central" fill="#333333">glyphs-30000-uncached</text><polyline fill="none" points="735.936,206.613 747.936,206.613" stroke="#009e73" stroke-width="1.75" stroke-linecap="round"/><text x="753.936" y="206.613" font-family="sans-serif" font-size="12" dominant-baseline="central" fill="#333333">hatch-2000-0.35mm</text><polyline fill="none" points="735.936,223.713 747.936,223.713" stroke="#f0e442" stroke-width="1.75" stroke-linecap="round"/><text x="753.936" y="223.713" font-family="sans-serif" font-size="12" dominant-baseline="central" fill="#333333">hatch-2000-hairline</text><polyline fill="none" points="735.936,240.813 747.936,240.813" stroke="#56b4e9" stroke-width="1.75" stroke-linecap="round"/><text x="753.936" y="240.813" font-family="sans-serif" font-size="12" dominant-baseline="central" fill="#333333">hatch-2000-maskclip</text><polyline fill="none" points="735.936,257.913 747.936,257.913" stroke="#e69f00" stroke-width="1.75" stroke-linecap="round"/><text x="753.936" y="257.913" font-family="sans-serif" font-size="12" dominant-baseline="central" fill="#333333">mixed-drawing</text><polyline fill="none" points="735.936,275.013 747.936,275.013" stroke="#cc79a7" stroke-width="1.75" stroke-linecap="round"/><text x="753.936" y="275.013" font-family="sans-serif" font-size="12" dominant-baseline="central" fill="#333333">short-20000-0.35mm</text><polyline fill="none" points="735.936,292.113 747.936,292.113" stroke="#000000" stroke-width="1.75" stroke-linecap="round"/><text x="753.936" y="292.113" font-family="sans-serif" font-size="12" dominant-baseline="central" fill="#333333">short-20000-hairline</text></svg>