<?xml version="1.0" encoding="UTF-8"?><svg xmlns="http://www.w3.org/2000/svg" width="900" height="480" viewBox="0 0 900 480" role="img" aria-labelledby="figure-title"><title id="figure-title">BenchmarkScenes at 150 dpi, one core</title><defs><clipPath id="c1"><path d="M50.332,32.8 L721.936,32.8 L721.936,431.725 L50.332,431.725 Z"/></clipPath><path id="m2" d="M1.5,0 C1.5,0.828 0.828,1.5 0,1.5 C-0.828,1.5 -1.5,0.828 -1.5,0 C-1.5,-0.828 -0.828,-1.5 0,-1.5 C0.828,-1.5 1.5,-0.828 1.5,0 Z" fill="#0072b2"/><path id="m3" d="M1.5,0 C1.5,0.828 0.828,1.5 0,1.5 C-0.828,1.5 -1.5,0.828 -1.5,0 C-1.5,-0.828 -0.828,-1.5 0,-1.5 C0.828,-1.5 1.5,-0.828 1.5,0 Z" fill="#d55e00"/><path id="m4" d="M1.5,0 C1.5,0.828 0.828,1.5 0,1.5 C-0.828,1.5 -1.5,0.828 -1.5,0 C-1.5,-0.828 -0.828,-1.5 0,-1.5 C0.828,-1.5 1.5,-0.828 1.5,0 Z" fill="#009e73"/><path id="m5" d="M1.5,0 C1.5,0.828 0.828,1.5 0,1.5 C-0.828,1.5 -1.5,0.828 -1.5,0 C-1.5,-0.828 -0.828,-1.5 0,-1.5 C0.828,-1.5 1.5,-0.828 1.5,0 Z" fill="#f0e442"/><path id="m6" d="M1.5,0 C1.5,0.828 0.828,1.5 0,1.5 C-0.828,1.5 -1.5,0.828 -1.5,0 C-1.5,-0.828 -0.828,-1.5 0,-1.5 C0.828,-1.5 1.5,-0.828 1.5,0 Z" fill="#56b4e9"/><path id="m7" d="M1.5,0 C1.5,0.828 0.828,1.5 0,1.5 C-0.828,1.5 -1.5,0.828 -1.5,0 C-1.5,-0.828 -0.828,-1.5 0,-1.5 C0.828,-1.5 1.5,-0.828 1.5,0 Z" fill="#e69f00"/><path id="m8" d="M1.5,0 C1.5,0.828 0.828,1.5 0,1.5 C-0.828,1.5 -1.5,0.828 -1.5,0 C-1.5,-0.828 -0.828,-1.5 0,-1.5 C0.828,-1.5 1.5,-0.828 1.5,0 Z" fill="#cc79a7"/><path id="m9" d="M1.5,0 C1.5,0.828 0.828,1.5 0,1.5 C-0.828,1.5 -1.5,0.828 -1.5,0 C-1.5,-0.828 -0.828,-1.5 0,-1.5 C0.828,-1.5 1.5,-0.828 1.5,0 Z" fill="#000000"/></defs><path d="M0,0 L900,0 L900,480 L0,480 Z" fill="#ffffff"/><polyline fill="none" points="50.332,431.725 721.936,431.725" stroke="#dddddd"/><polyline fill="none" points="50.332,331.994 721.936,331.994" stroke="#dddddd"/><polyline fill="none" points="50.332,232.262 721.936,232.262" stroke="#dddddd"/><polyline fill="none" points="50.332,132.531 721.936,132.531" stroke="#dddddd"/><polyline fill="none" points="50.332,32.8 721.936,32.8" stroke="#dddddd"/><polyline fill="none" points="50.332,431.725 721.936,431.725" stroke="#333333"/><polyline fill="none" points="50.332,32.8 50.332,431.725" stroke="#333333"/><polyline fill="none" points="72.719,431.725 72.719,436.725" stroke="#333333"/><text x="72.719" y="440.725" font-family="sans-serif" font-size="11" text-anchor="middle" dominant-baseline="hanging" fill="#555555">v0.1.0</text><polyline fill="none" points="117.492,431.725 117.492,436.725" stroke="#333333"/><text x="117.492" y="440.725" font-family="sans-serif" font-size="11" text-anchor="middle" dominant-baseline="hanging" fill="#555555">v0.1.1</text><polyline fill="none" points="162.266,431.725 162.266,436.725" stroke="#333333"/><text x="162.266" y="440.725" font-family="sans-serif" font-size="11" text-anchor="middle" dominant-baseline="hanging" fill="#555555">v0.2.0</text><polyline fill="none" points="207.04,431.725 207.04,436.725" stroke="#333333"/><text x="207.04" y="440.725" font-family="sans-serif" font-size="11" text-anchor="middle" dominant-baseline="hanging" fill="#555555">v0.2.1</text><polyline fill="none" points="251.813,431.725 251.813,436.725" stroke="#333333"/><text x="251.813" y="440.725" font-family="sans-serif" font-size="11" text-anchor="middle" dominant-baseline="hanging" fill="#555555">v0.3.0</text><polyline fill="none" points="296.587,431.725 296.587,436.725" stroke="#333333"/><text x="296.587" y="440.725" font-family="sans-serif" font-size="11" text-anchor="middle" dominant-baseline="hanging" fill="#555555">v0.4.0</text><polyline fill="none" points="341.36,431.725 341.36,436.725" stroke="#333333"/><text x="341.36" y="440.725" font-family="sans-serif" font-size="11" text-anchor="middle" dominant-baseline="hanging" fill="#555555">v0.5.0</text><polyline fill="none" points="386.134,431.725 386.134,436.725" stroke="#333333"/><text x="386.134" y="440.725" font-family="sans-serif" font-size="11" text-anchor="middle" dominant-baseline="hanging" fill="#555555">v0.5.1</text><polyline fill="none" points="430.908,431.725 430.908,436.725" stroke="#333333"/><text x="430.908" y="440.725" font-family="sans-serif" font-size="11" text-anchor="middle" dominant-baseline="hanging" fill="#555555">v0.5.2</text><polyline fill="none" points="475.681,431.725 475.681,436.725" stroke="#333333"/><text x="475.681" y="440.725" font-family="sans-serif" font-size="11" text-anchor="middle" dominant-baseline="hanging" fill="#555555">v0.5.3</text><polyline fill="none" points="520.455,431.725 520.455,436.725" stroke="#333333"/><text x="520.455" y="440.725" font-family="sans-serif" font-size="11" text-anchor="middle" dominant-baseline="hanging" fill="#555555">v0.6.0</text><polyline fill="none" points="565.228,431.725 565.228,436.725" stroke="#333333"/><text x="565.228" y="440.725" font-family="sans-serif" font-size="11" text-anchor="middle" dominant-baseline="hanging" fill="#555555">v0.6.1</text><polyline fill="none" points="610.002,431.725 610.002,436.725" stroke="#333333"/><text x="610.002" y="440.725" font-family="sans-serif" font-size="11" text-anchor="middle" dominant-baseline="hanging" fill="#555555">v0.6.2</text><polyline fill="none" points="654.776,431.725 654.776,436.725" stroke="#333333"/><text x="654.776" y="440.725" font-family="sans-serif" font-size="11" text-anchor="middle" dominant-baseline="hanging" fill="#555555">v0.6.3</text><polyline fill="none" points="699.549,431.725 699.549,436.725" stroke="#333333"/><text x="699.549" y="440.725" font-family="sans-serif" font-size="11" text-anchor="middle" dominant-baseline="hanging" fill="#555555">main</text><polyline fill="none" points="45.332,431.725 50.332,431.725" stroke="#333333"/><text x="41.332" y="431.725" font-family="sans-serif" font-size="11" text-anchor="end" dominant-baseline="central" fill="#555555">0</text><polyline fill="none" points="45.332,331.994 50.332,331.994" stroke="#333333"/><text x="41.332" y="331.994" font-family="sans-serif" font-size="11" text-anchor="end" dominant-baseline="central" fill="#555555">20</text><polyline fill="none" points="45.332,232.262 50.332,232.262" stroke="#333333"/><text x="41.332" y="232.262" font-family="sans-serif" font-size="11" text-anchor="end" dominant-baseline="central" fill="#555555">40</text><polyline fill="none" points="45.332,132.531 50.332,132.531" stroke="#333333"/><text x="41.332" y="132.531" font-family="sans-serif" font-size="11" text-anchor="end" dominant-baseline="central" fill="#555555">60</text><polyline fill="none" points="45.332,32.8 50.332,32.8" stroke="#333333"/><text x="41.332" y="32.8" font-family="sans-serif" font-size="11" text-anchor="end" dominant-baseline="central" fill="#555555">80</text><text x="386.134" y="23.488" font-family="sans-serif" font-size="16" text-anchor="middle" fill="#1a1a1a">BenchmarkScenes at 150 dpi, one core</text><text x="386.134" y="465.516" font-family="sans-serif" font-size="12" text-anchor="middle" fill="#333333">release (all measured in one run, 2026-10-02)</text><text x="20.616" y="232.262" font-family="sans-serif" font-size="12" text-anchor="middle" fill="#333333" transform="rotate(-90 20.616 232.262)">ms/op</text><g clip-path="url(#c1)"><polyline fill="none" points="72.719,108.408 117.492,62.083 162.266,70.595 207.04,93.051 251.813,110.077 296.587,112.42 341.36,107.755 386.134,107.287 430.908,101.936 475.681,109.243 520.455,103.852 565.228,110.526 610.002,101.114 654.776,104.565 699.549,112.458" stroke="#0072b2" stroke-width="1.75" stroke-linecap="round" stroke-linejoin="round"/><use href="#m2" x="72.719" y="108.408"/><use href="#m2" x="117.492" y="62.083"/><use href="#m2" x="162.266" y="70.595"/><use href="#m2" x="207.04" y="93.051"/><use href="#m2" x="251.813" y="110.077"/><use href="#m2" x="296.587" y="112.42"/><use href="#m2" x="341.36" y="107.755"/><use href="#m2" x="386.134" y="107.287"/><use href="#m2" x="430.908" y="101.936"/><use href="#m2" x="475.681" y="109.243"/><use href="#m2" x="520.455" y="103.852"/><use href="#m2" x="565.228" y="110.526"/><use href="#m2" x="610.002" y="101.114"/><use href="#m2" x="654.776" y="104.565"/><use href="#m2" x="699.549" y="112.458"/><polyline fill="none" points="72.719,201.171 117.492,199.663 162.266,199.531 207.04,188.922 251.813,193.686 296.587,192.418 341.36,193.532 386.134,192.774 430.908,191.598 475.681,194.194 520.455,191.736 565.228,194.453 610.002,190.662 654.776,190.072 699.549,190.717" stroke="#d55e00" stroke-width="1.75" stroke-linecap="round" stroke-linejoin="round"/><use href="#m3" x="72.719" y="201.171"/><use href="#m3" x="117.492" y="199.663"/><use href="#m3" x="162.266" y="199.531"/><use href="#m3" x="207.04" y="188.922"/><use href="#m3" x="251.813" y="193.686"/><use href="#m3" x="296.587" y="192.418"/><use href="#m3" x="341.36" y="193.532"/><use href="#m3" x="386.134" y="192.774"/><use href="#m3" x="430.908" y="191.598"/><use href="#m3" x="475.681" y="194.194"/><use href="#m3" x="520.455" y="191.736"/><use href="#m3" x="565.228" y="194.453"/><use href="#m3" x="610.002" y="190.662"/><use href="#m3" x="654.776" y="190.072"/><use href="#m3" x="699.549" y="190.717"/><polyline fill="none" points="341.36,96.959 386.134,96.369 430.908,156.689 475.681,160.264 520.455,160.527 565.228,162.452 610.002,163.97 654.776,163.309 699.549,119.788" stroke="#009e73" stroke-width="1.75" stroke-linecap="round" stroke-linejoin="round"/><use href="#m4" x="341.36" y="96.959"/><use href="#m4" x="386.134" y="96.369"/><use href="#m4" x="430.908" y="156.689"/><use href="#m4" x="475.681" y="160.264"/><use href="#m4" x="520.455" y="160.527"/><use href="#m4" x="565.228" y="162.452"/><use href="#m4" x="610.002" y="163.97"/><use href="#m4" x="654.776" y="163.309"/><use href="#m4" x="699.549" y="119.788"/><polyline fill="none" points="72.719,173.508 117.492,169.016 162.266,173.547 207.04,170.996 251.813,192.39 296.587,193.06 341.36,193.4 386.134,192.857 430.908,192.999 475.681,194.127 520.455,193.54 565.228,192.948 610.002,193.629 654.776,193.556 699.549,194.136" stroke="#f0e442" stroke-width="1.75" stroke-linecap="round" stroke-linejoin="round"/><use href="#m5" x="72.719" y="173.508"/><use href="#m5" x="117.492" y="169.016"/><use href="#m5" x="162.266" y="173.547"/><use href="#m5" x="207.04" y="170.996"/><use href="#m5" x="251.813" y="192.39"/><use href="#m5" x="296.587" y="193.06"/><use href="#m5" x="341.36" y="193.4"/><use href="#m5" x="386.134" y="192.857"/><use href="#m5" x="430.908" y="192.999"/><use href="#m5" x="475.681" y="194.127"/><use href="#m5" x="520.455" y="193.54"/><use href="#m5" x="565.228" y="192.948"/><use href="#m5" x="610.002" y="193.629"/><use href="#m5" x="654.776" y="193.556"/><use href="#m5" x="699.549" y="194.136"/><polyline fill="none" points="72.719,201.834 117.492,201.476 162.266,201.858 207.04,201.469 251.813,220.777 296.587,221.568 341.36,221.496 386.134,219.438 430.908,221.874 475.681,222.495 520.455,220.283 565.228,220.869 610.002,221.708 654.776,221.759 699.549,221.651" stroke="#56b4e9" stroke-width="1.75" stroke-linecap="round" stroke-linejoin="round"/><use href="#m6" x="72.719" y="201.834"/><use href="#m6" x="117.492" y="201.476"/><use href="#m6" x="162.266" y="201.858"/><use href="#m6" x="207.04" y="201.469"/><use href="#m6" x="251.813" y="220.777"/><use href="#m6" x="296.587" y="221.568"/><use href="#m6" x="341.36" y="221.496"/><use href="#m6" x="386.134" y="219.438"/><use href="#m6" x="430.908" y="221.874"/><use href="#m6" x="475.681" y="222.495"/><use href="#m6" x="520.455" y="220.283"/><use href="#m6" x="565.228" y="220.869"/><use href="#m6" x="610.002" y="221.708"/><use href="#m6" x="654.776" y="221.759"/><use href="#m6" x="699.549" y="221.651"/><polyline fill="none" points="72.719,198.27 117.492,198.047 162.266,196.06 207.04,195.284 251.813,211.519 296.587,212.165 341.36,212.2 386.134,214.094 430.908,209.788 475.681,209.363 520.455,208.83 565.228,212.802 610.002,211.519 654.776,210.783 699.549,212.256" stroke="#e69f00" stroke-width="1.75" stroke-linecap="round" stroke-linejoin="round"/><use href="#m7" x="72.719" y="198.27"/><use href="#m7" x="117.492" y="198.047"/><use href="#m7" x="162.266" y="196.06"/><use href="#m7" x="207.04" y="195.284"/><use href="#m7" x="251.813" y="211.519"/><use href="#m7" x="296.587" y="212.165"/><use href="#m7" x="341.36" y="212.2"/><use href="#m7" x="386.134" y="214.094"/><use href="#m7" x="430.908" y="209.788"/><use href="#m7" x="475.681" y="209.363"/><use href="#m7" x="520.455" y="208.83"/><use href="#m7" x="565.228" y="212.802"/><use href="#m7" x="610.002" y="211.519"/><use href="#m7" x="654.776" y="210.783"/><use href="#m7" x="699.549" y="212.256"/><polyline fill="none" points="341.36,191.498 386.134,192.783 430.908,193.52 475.681,193.434 520.455,187.2 565.228,191.248 610.002,188.116 654.776,191.599 699.549,193.406" stroke="#cc79a7" stroke-width="1.75" stroke-linecap="round" stroke-linejoin="round"/><use href="#m8" x="341.36" y="191.498"/><use href="#m8" x="386.134" y="192.783"/><use href="#m8" x="430.908" y="193.52"/><use href="#m8" x="475.681" y="193.434"/><use href="#m8" x="520.455" y="187.2"/><use href="#m8" x="565.228" y="191.248"/><use href="#m8" x="610.002" y="188.116"/><use href="#m8" x="654.776" y="191.599"/><use href="#m8" x="699.549" y="193.406"/><polyline fill="none" points="341.36,178.545 386.134,286.144 430.908,286.077 475.681,293.279 520.455,293.989 565.228,314.296 610.002,313.99 654.776,314.244 699.549,311.67" stroke="#000000" stroke-width="1.75" stroke-linecap="round" stroke-linejoin="round"/><use href="#m9" x="341.36" y="178.545"/><use href="#m9" x="386.134" y="286.144"/><use href="#m9" x="430.908" y="286.077"/><use href="#m9" x="475.681" y="293.279"/><use href="#m9" x="520.455" y="293.989"/><use href="#m9" x="565.228" y="314.296"/><use href="#m9" x="610.002" y="313.99"/><use href="#m9" x="654.776" y="314.244"/><use href="#m9" x="699.549" y="311.67"/><polyline fill="none" points="72.719,235.463 117.492,233.906 162.266,230.57 207.04,228.454 251.813,248.744 296.587,246.25 341.36,249.432 386.134,249.628 430.908,245.691 475.681,249.284 520.455,248.844 565.228,248.816 610.002,245.852 654.776,245.694 699.549,248.283" stroke="#0072b2" stroke-width="1.75" stroke-linecap="round" stroke-linejoin="round" stroke-dasharray="6 4"/><use href="#m2" x="72.719" y="235.463"/><use href="#m2" x="117.492" y="233.906"/><use href="#m2" x="162.266" y="230.57"/><use href="#m2" x="207.04" y="228.454"/><use href="#m2" x="251.813" y="248.744"/><use href="#m2" x="296.587" y="246.25"/><use href="#m2" x="341.36" y="249.432"/><use href="#m2" x="386.134" y="249.628"/><use href="#m2" x="430.908" y="245.691"/><use href="#m2" x="475.681" y="249.284"/><use href="#m2" x="520.455" y="248.844"/><use href="#m2" x="565.228" y="248.816"/><use href="#m2" x="610.002" y="245.852"/><use href="#m2" x="654.776" y="245.694"/><use href="#m2" x="699.549" y="248.283"/><polyline fill="none" points="520.455,240.048 565.228,238.583 610.002,237.078 654.776,238.867 699.549,240.701" stroke="#d55e00" stroke-width="1.75" stroke-linecap="round" stroke-linejoin="round" stroke-dasharray="6 4"/><use href="#m3" x="520.455" y="240.048"/><use href="#m3" x="565.228" y="238.583"/><use href="#m3" x="610.002" y="237.078"/><use href="#m3" x="654.776" y="238.867"/><use href="#m3" x="699.549" y="240.701"/><polyline fill="none" points="72.719,273.145 117.492,254.082 162.266,267.719 207.04,265.213 251.813,270.955 296.587,277.412 341.36,282.36 386.134,277.862 430.908,281.963 475.681,283.29 520.455,282.196 565.228,283.533 610.002,279.983 654.776,282.732 699.549,281.216" stroke="#009e73" stroke-width="1.75" stroke-linecap="round" stroke-linejoin="round" stroke-dasharray="6 4"/><use href="#m4" x="72.719" y="273.145"/><use href="#m4" x="117.492" y="254.082"/><use href="#m4" x="162.266" y="267.719"/><use href="#m4" x="207.04" y="265.213"/><use href="#m4" x="251.813" y="270.955"/><use href="#m4" x="296.587" y="277.412"/><use href="#m4" x="341.36" y="282.36"/><use href="#m4" x="386.134" y="277.862"/><use href="#m4" x="430.908" y="281.963"/><use href="#m4" x="475.681" y="283.29"/><use href="#m4" x="520.455" y="282.196"/><use href="#m4" x="565.228" y="283.533"/><use href="#m4" x="610.002" y="279.983"/><use href="#m4" x="654.776" y="282.732"/><use href="#m4" x="699.549" y="281.216"/><polyline fill="none" points="72.719,299.376 117.492,285.332 162.266,287.625 207.04,284.388 251.813,293.735 296.587,302.472 341.36,303.478 386.134,300.047 430.908,303.006 475.681,304.367 520.455,293.073 565.228,302.524 610.002,300.348 654.776,299.846 699.549,304.574" stroke="#f0e442" stroke-width="1.75" stroke-linecap="round" stroke-linejoin="round" stroke-dasharray="6 4"/><use href="#m5" x="72.719" y="299.376"/><use href="#m5" x="117.492" y="285.332"/><use href="#m5" x="162.266" y="287.625"/><use href="#m5" x="207.04" y="284.388"/><use href="#m5" x="251.813" y="293.735"/><use href="#m5" x="296.587" y="302.472"/><use href="#m5" x="341.36" y="303.478"/><use href="#m5" x="386.134" y="300.047"/><use href="#m5" x="430.908" y="303.006"/><use href="#m5" x="475.681" y="304.367"/><use href="#m5" x="520.455" y="293.073"/><use href="#m5" x="565.228" y="302.524"/><use href="#m5" x="610.002" y="300.348"/><use href="#m5" x="654.776" y="299.846"/><use href="#m5" x="699.549" y="304.574"/><polyline fill="none" points="341.36,359.293 386.134,359.138 430.908,359.106 475.681,357.473 520.455,357.594 565.228,357.639 610.002,356.779 654.776,357.77 699.549,358.076" stroke="#56b4e9" stroke-width="1.75" stroke-linecap="round" stroke-linejoin="round" stroke-dasharray="6 4"/><use href="#m6" x="341.36" y="359.293"/><use href="#m6" x="386.134" y="359.138"/><use href="#m6" x="430.908" y="359.106"/><use href="#m6" x="475.681" y="357.473"/><use href="#m6" x="520.455" y="357.594"/><use href="#m6" x="565.228" y="357.639"/><use href="#m6" x="610.002" y="356.779"/><use href="#m6" x="654.776" y="357.77"/><use href="#m6" x="699.549" y="358.076"/></g><polyline fill="none" points="735.936,129.662 747.936,129.662" stroke="#0072b2" stroke-width="1.75" stroke-linecap="round"/><text x="753.936" y="129.662" font-family="sans-serif" font-size="12" dominant-baseline="central" fill="#333333">contours-3000</text><polyline fill="none" points="735.936,146.762 747.936,146.762" stroke="#d55e00" stroke-width="1.75" stroke-linecap="round"/><text x="753.936" y="146.762" font-family="sans-serif" font-size="12" dominant-baseline="central" fill="#333333">glyphs-30000-uncached</text><polyline fill="none" points="735.936,163.863 747.936,163.863" stroke="#009e73" stroke-width="1.75" stroke-linecap="round"/><text x="753.936" y="163.863" font-family="sans-serif" font-size="12" dominant-baseline="central" fill="#333333">gradients-200</text><polyline fill="none" points="735.936,180.963 747.936,180.963" stroke="#f0e442" stroke-width="1.75" stroke-linecap="round"/><text x="753.936" y="180.963" font-family="sans-serif" font-size="12" dominant-baseline="central" fill="#333333">hatch-2000-0.35mm</text><polyline fill="none" points="735.936,198.063 747.936,198.063" stroke="#56b4e9" stroke-width="1.75" stroke-linecap="round"/><text x="753.936" y="198.063" font-family="sans-serif" font-size="12" dominant-baseline="central" fill="#333333">hatch-2000-hairline</text><polyline fill="none" points="735.936,215.163 747.936,215.163" stroke="#e69f00" stroke-width="1.75" stroke-linecap="round"/><text x="753.936" y="215.163" font-family="sans-serif" font-size="12" dominant-baseline="central" fill="#333333">hatch-2000-maskclip</text><polyline fill="none" points="735.936,232.263 747.936,232.263" stroke="#cc79a7" stroke-width="1.75" stroke-linecap="round"/><text x="753.936" y="232.263" font-family="sans-serif" font-size="12" dominant-baseline="central" fill="#333333">images-60</text><polyline fill="none" points="735.936,249.363 747.936,249.363" stroke="#000000" stroke-width="1.75" stroke-linecap="round"/><text x="753.936" y="249.363" font-family="sans-serif" font-size="12" dominant-baseline="central" fill="#333333">layers-24</text><polyline fill="none" points="735.936,266.463 747.936,266.463" stroke="#0072b2" stroke-width="1.75" stroke-linecap="round" stroke-dasharray="6 4"/><text x="753.936" y="266.463" font-family="sans-serif" font-size="12" dominant-baseline="central" fill="#333333">mixed-drawing</text><polyline fill="none" points="735.936,283.563 747.936,283.563" stroke="#d55e00" stroke-width="1.75" stroke-linecap="round" stroke-dasharray="6 4"/><text x="753.936" y="283.563" font-family="sans-serif" font-size="12" dominant-baseline="central" fill="#333333">patterns-200</text><polyline fill="none" points="735.936,300.663 747.936,300.663" stroke="#009e73" stroke-width="1.75" stroke-linecap="round" stroke-dasharray="6 4"/><text x="753.936" y="300.663" font-family="sans-serif" font-size="12" dominant-baseline="central" fill="#333333">short-20000-0.35mm</text><polyline fill="none" points="735.936,317.763 747.936,317.763" stroke="#f0e442" stroke-width="1.75" stroke-linecap="round" stroke-dasharray="6 4"/><text x="753.936" y="317.763" font-family="sans-serif" font-size="12" dominant-baseline="central" fill="#333333">short-20000-hairline</text><polyline fill="none" points="735.936,334.863 747.936,334.863" stroke="#56b4e9" stroke-width="1.75" stroke-linecap="round" stroke-dasharray="6 4"/><text x="753.936" y="334.863" font-family="sans-serif" font-size="12" dominant-baseline="central" fill="#333333">text-30000-cached</text></svg>