<?xml version="1.0" encoding="UTF-8"?><svg xmlns="http://www.w3.org/2000/svg" width="900" height="480" viewBox="0 0 900 480" role="img" aria-labelledby="figure-title"><title id="figure-title">BenchmarkScenes at 150 dpi, one core</title><defs><clipPath id="c1"><path d="M56.448,32.8 L721.936,32.8 L721.936,431.725 L56.448,431.725 Z"/></clipPath><path id="m2" d="M1.5,0 C1.5,0.828 0.828,1.5 0,1.5 C-0.828,1.5 -1.5,0.828 -1.5,0 C-1.5,-0.828 -0.828,-1.5 0,-1.5 C0.828,-1.5 1.5,-0.828 1.5,0 Z" fill="#0072b2"/><path id="m3" d="M1.5,0 C1.5,0.828 0.828,1.5 0,1.5 C-0.828,1.5 -1.5,0.828 -1.5,0 C-1.5,-0.828 -0.828,-1.5 0,-1.5 C0.828,-1.5 1.5,-0.828 1.5,0 Z" fill="#d55e00"/><path id="m4" d="M1.5,0 C1.5,0.828 0.828,1.5 0,1.5 C-0.828,1.5 -1.5,0.828 -1.5,0 C-1.5,-0.828 -0.828,-1.5 0,-1.5 C0.828,-1.5 1.5,-0.828 1.5,0 Z" fill="#009e73"/><path id="m5" d="M1.5,0 C1.5,0.828 0.828,1.5 0,1.5 C-0.828,1.5 -1.5,0.828 -1.5,0 C-1.5,-0.828 -0.828,-1.5 0,-1.5 C0.828,-1.5 1.5,-0.828 1.5,0 Z" fill="#f0e442"/><path id="m6" d="M1.5,0 C1.5,0.828 0.828,1.5 0,1.5 C-0.828,1.5 -1.5,0.828 -1.5,0 C-1.5,-0.828 -0.828,-1.5 0,-1.5 C0.828,-1.5 1.5,-0.828 1.5,0 Z" fill="#56b4e9"/><path id="m7" d="M1.5,0 C1.5,0.828 0.828,1.5 0,1.5 C-0.828,1.5 -1.5,0.828 -1.5,0 C-1.5,-0.828 -0.828,-1.5 0,-1.5 C0.828,-1.5 1.5,-0.828 1.5,0 Z" fill="#e69f00"/><path id="m8" d="M1.5,0 C1.5,0.828 0.828,1.5 0,1.5 C-0.828,1.5 -1.5,0.828 -1.5,0 C-1.5,-0.828 -0.828,-1.5 0,-1.5 C0.828,-1.5 1.5,-0.828 1.5,0 Z" fill="#cc79a7"/><path id="m9" d="M1.5,0 C1.5,0.828 0.828,1.5 0,1.5 C-0.828,1.5 -1.5,0.828 -1.5,0 C-1.5,-0.828 -0.828,-1.5 0,-1.5 C0.828,-1.5 1.5,-0.828 1.5,0 Z" fill="#000000"/></defs><path d="M0,0 L900,0 L900,480 L0,480 Z" fill="#ffffff"/><polyline fill="none" points="56.448,431.725 721.936,431.725" stroke="#dddddd"/><polyline fill="none" points="56.448,338.595 721.936,338.595" stroke="#dddddd"/><polyline fill="none" points="56.448,245.464 721.936,245.464" stroke="#dddddd"/><polyline fill="none" points="56.448,152.334 721.936,152.334" stroke="#dddddd"/><polyline fill="none" points="56.448,59.203 721.936,59.203" stroke="#dddddd"/><polyline fill="none" points="56.448,431.725 721.936,431.725" stroke="#333333"/><polyline fill="none" points="56.448,32.8 56.448,431.725" stroke="#333333"/><polyline fill="none" points="78.631,431.725 78.631,436.725" stroke="#333333"/><text x="78.631" y="440.725" font-family="sans-serif" font-size="11" text-anchor="middle" dominant-baseline="hanging" fill="#555555">v0.1.0</text><polyline fill="none" points="122.997,431.725 122.997,436.725" stroke="#333333"/><text x="122.997" y="440.725" font-family="sans-serif" font-size="11" text-anchor="middle" dominant-baseline="hanging" fill="#555555">v0.1.1</text><polyline fill="none" points="167.363,431.725 167.363,436.725" stroke="#333333"/><text x="167.363" y="440.725" font-family="sans-serif" font-size="11" text-anchor="middle" dominant-baseline="hanging" fill="#555555">v0.2.0</text><polyline fill="none" points="211.729,431.725 211.729,436.725" stroke="#333333"/><text x="211.729" y="440.725" font-family="sans-serif" font-size="11" text-anchor="middle" dominant-baseline="hanging" fill="#555555">v0.2.1</text><polyline fill="none" points="256.094,431.725 256.094,436.725" stroke="#333333"/><text x="256.094" y="440.725" font-family="sans-serif" font-size="11" text-anchor="middle" dominant-baseline="hanging" fill="#555555">v0.3.0</text><polyline fill="none" points="300.46,431.725 300.46,436.725" stroke="#333333"/><text x="300.46" y="440.725" font-family="sans-serif" font-size="11" text-anchor="middle" dominant-baseline="hanging" fill="#555555">v0.4.0</text><polyline fill="none" points="344.826,431.725 344.826,436.725" stroke="#333333"/><text x="344.826" y="440.725" font-family="sans-serif" font-size="11" text-anchor="middle" dominant-baseline="hanging" fill="#555555">v0.5.0</text><polyline fill="none" points="389.192,431.725 389.192,436.725" stroke="#333333"/><text x="389.192" y="440.725" font-family="sans-serif" font-size="11" text-anchor="middle" dominant-baseline="hanging" fill="#555555">v0.5.1</text><polyline fill="none" points="433.558,431.725 433.558,436.725" stroke="#333333"/><text x="433.558" y="440.725" font-family="sans-serif" font-size="11" text-anchor="middle" dominant-baseline="hanging" fill="#555555">v0.5.2</text><polyline fill="none" points="477.924,431.725 477.924,436.725" stroke="#333333"/><text x="477.924" y="440.725" font-family="sans-serif" font-size="11" text-anchor="middle" dominant-baseline="hanging" fill="#555555">v0.5.3</text><polyline fill="none" points="522.29,431.725 522.29,436.725" stroke="#333333"/><text x="522.29" y="440.725" font-family="sans-serif" font-size="11" text-anchor="middle" dominant-baseline="hanging" fill="#555555">v0.6.0</text><polyline fill="none" points="566.656,431.725 566.656,436.725" stroke="#333333"/><text x="566.656" y="440.725" font-family="sans-serif" font-size="11" text-anchor="middle" dominant-baseline="hanging" fill="#555555">v0.6.1</text><polyline fill="none" points="611.021,431.725 611.021,436.725" stroke="#333333"/><text x="611.021" y="440.725" font-family="sans-serif" font-size="11" text-anchor="middle" dominant-baseline="hanging" fill="#555555">v0.6.2</text><polyline fill="none" points="655.387,431.725 655.387,436.725" stroke="#333333"/><text x="655.387" y="440.725" font-family="sans-serif" font-size="11" text-anchor="middle" dominant-baseline="hanging" fill="#555555">v0.6.3</text><polyline fill="none" points="699.753,431.725 699.753,436.725" stroke="#333333"/><text x="699.753" y="440.725" font-family="sans-serif" font-size="11" text-anchor="middle" dominant-baseline="hanging" fill="#555555">main</text><polyline fill="none" points="51.448,431.725 56.448,431.725" stroke="#333333"/><text x="47.448" y="431.725" font-family="sans-serif" font-size="11" text-anchor="end" dominant-baseline="central" fill="#555555">0</text><polyline fill="none" points="51.448,338.595 56.448,338.595" stroke="#333333"/><text x="47.448" y="338.595" font-family="sans-serif" font-size="11" text-anchor="end" dominant-baseline="central" fill="#555555">25</text><polyline fill="none" points="51.448,245.464 56.448,245.464" stroke="#333333"/><text x="47.448" y="245.464" font-family="sans-serif" font-size="11" text-anchor="end" dominant-baseline="central" fill="#555555">50</text><polyline fill="none" points="51.448,152.334 56.448,152.334" stroke="#333333"/><text x="47.448" y="152.334" font-family="sans-serif" font-size="11" text-anchor="end" dominant-baseline="central" fill="#555555">75</text><polyline fill="none" points="51.448,59.203 56.448,59.203" stroke="#333333"/><text x="47.448" y="59.203" font-family="sans-serif" font-size="11" text-anchor="end" dominant-baseline="central" fill="#555555">100</text><text x="389.192" y="23.488" font-family="sans-serif" font-size="16" text-anchor="middle" fill="#1a1a1a">BenchmarkScenes at 150 dpi, one core</text><text x="389.192" y="465.516" font-family="sans-serif" font-size="12" text-anchor="middle" fill="#333333">release (all measured in one run, 2026-10-02)</text><text x="20.616" y="232.262" font-family="sans-serif" font-size="12" text-anchor="middle" fill="#333333" transform="rotate(-90 20.616 232.262)">ms/op</text><g clip-path="url(#c1)"><polyline fill="none" points="78.631,32.8 122.997,72.691 167.363,82.608 211.729,82.885 256.094,111.667 300.46,114.882 344.826,111.819 389.192,110.837 433.558,112.384 477.924,117.544 522.29,111.791 566.656,108.454 611.021,123.569 655.387,122.814 699.753,121.354" stroke="#0072b2" stroke-width="1.75" stroke-linecap="round" stroke-linejoin="round"/><use href="#m2" x="78.631" y="32.8"/><use href="#m2" x="122.997" y="72.691"/><use href="#m2" x="167.363" y="82.608"/><use href="#m2" x="211.729" y="82.885"/><use href="#m2" x="256.094" y="111.667"/><use href="#m2" x="300.46" y="114.882"/><use href="#m2" x="344.826" y="111.819"/><use href="#m2" x="389.192" y="110.837"/><use href="#m2" x="433.558" y="112.384"/><use href="#m2" x="477.924" y="117.544"/><use href="#m2" x="522.29" y="111.791"/><use href="#m2" x="566.656" y="108.454"/><use href="#m2" x="611.021" y="123.569"/><use href="#m2" x="655.387" y="122.814"/><use href="#m2" x="699.753" y="121.354"/><polyline fill="none" points="78.631,201.929 122.997,204.095 167.363,205.367 211.729,193.104 256.094,196.438 300.46,197.096 344.826,196.06 389.192,195.522 433.558,194.284 477.924,195.905 522.29,194.867 566.656,196.02 611.021,193.96 655.387,193.752 699.753,193.388" stroke="#d55e00" stroke-width="1.75" stroke-linecap="round" stroke-linejoin="round"/><use href="#m3" x="78.631" y="201.929"/><use href="#m3" x="122.997" y="204.095"/><use href="#m3" x="167.363" y="205.367"/><use href="#m3" x="211.729" y="193.104"/><use href="#m3" x="256.094" y="196.438"/><use href="#m3" x="300.46" y="197.096"/><use href="#m3" x="344.826" y="196.06"/><use href="#m3" x="389.192" y="195.522"/><use href="#m3" x="433.558" y="194.284"/><use href="#m3" x="477.924" y="195.905"/><use href="#m3" x="522.29" y="194.867"/><use href="#m3" x="566.656" y="196.02"/><use href="#m3" x="611.021" y="193.96"/><use href="#m3" x="655.387" y="193.752"/><use href="#m3" x="699.753" y="193.388"/><polyline fill="none" points="344.826,95.803 389.192,109.667 433.558,169.425 477.924,173.017 522.29,173.628 566.656,172.736 611.021,176.111 655.387,173.67 699.753,131.677" stroke="#009e73" stroke-width="1.75" stroke-linecap="round" stroke-linejoin="round"/><use href="#m4" x="344.826" y="95.803"/><use href="#m4" x="389.192" y="109.667"/><use href="#m4" x="433.558" y="169.425"/><use href="#m4" x="477.924" y="173.017"/><use href="#m4" x="522.29" y="173.628"/><use href="#m4" x="566.656" y="172.736"/><use href="#m4" x="611.021" y="176.111"/><use href="#m4" x="655.387" y="173.67"/><use href="#m4" x="699.753" y="131.677"/><polyline fill="none" points="78.631,177.765 122.997,173.543 167.363,177.872 211.729,173.433 256.094,190.404 300.46,190.781 344.826,190.859 389.192,190.048 433.558,190.739 477.924,192.667 522.29,190.871 566.656,191.643 611.021,191.49 655.387,191.899 699.753,190.791" stroke="#f0e442" stroke-width="1.75" stroke-linecap="round" stroke-linejoin="round"/><use href="#m5" x="78.631" y="177.765"/><use href="#m5" x="122.997" y="173.543"/><use href="#m5" x="167.363" y="177.872"/><use href="#m5" x="211.729" y="173.433"/><use href="#m5" x="256.094" y="190.404"/><use href="#m5" x="300.46" y="190.781"/><use href="#m5" x="344.826" y="190.859"/><use href="#m5" x="389.192" y="190.048"/><use href="#m5" x="433.558" y="190.739"/><use href="#m5" x="477.924" y="192.667"/><use href="#m5" x="522.29" y="190.871"/><use href="#m5" x="566.656" y="191.643"/><use href="#m5" x="611.021" y="191.49"/><use href="#m5" x="655.387" y="191.899"/><use href="#m5" x="699.753" y="190.791"/><polyline fill="none" points="78.631,222.899 122.997,216.426 167.363,222.695 211.729,215.632 256.094,238.553 300.46,236.779 344.826,238.365 389.192,236.156 433.558,238.696 477.924,239.814 522.29,236.519 566.656,238.238 611.021,238.622 655.387,238.372 699.753,236.649" stroke="#56b4e9" stroke-width="1.75" stroke-linecap="round" stroke-linejoin="round"/><use href="#m6" x="78.631" y="222.899"/><use href="#m6" x="122.997" y="216.426"/><use href="#m6" x="167.363" y="222.695"/><use href="#m6" x="211.729" y="215.632"/><use href="#m6" x="256.094" y="238.553"/><use href="#m6" x="300.46" y="236.779"/><use href="#m6" x="344.826" y="238.365"/><use href="#m6" x="389.192" y="236.156"/><use href="#m6" x="433.558" y="238.696"/><use href="#m6" x="477.924" y="239.814"/><use href="#m6" x="522.29" y="236.519"/><use href="#m6" x="566.656" y="238.238"/><use href="#m6" x="611.021" y="238.622"/><use href="#m6" x="655.387" y="238.372"/><use href="#m6" x="699.753" y="236.649"/><polyline fill="none" points="78.631,204.387 122.997,208.494 167.363,208.118 211.729,208.021 256.094,213.326 300.46,214.698 344.826,214.303 389.192,209.846 433.558,212.477 477.924,213.017 522.29,209.15 566.656,215.079 611.021,215.174 655.387,214.936 699.753,212.435" stroke="#e69f00" stroke-width="1.75" stroke-linecap="round" stroke-linejoin="round"/><use href="#m7" x="78.631" y="204.387"/><use href="#m7" x="122.997" y="208.494"/><use href="#m7" x="167.363" y="208.118"/><use href="#m7" x="211.729" y="208.021"/><use href="#m7" x="256.094" y="213.326"/><use href="#m7" x="300.46" y="214.698"/><use href="#m7" x="344.826" y="214.303"/><use href="#m7" x="389.192" y="209.846"/><use href="#m7" x="433.558" y="212.477"/><use href="#m7" x="477.924" y="213.017"/><use href="#m7" x="522.29" y="209.15"/><use href="#m7" x="566.656" y="215.079"/><use href="#m7" x="611.021" y="215.174"/><use href="#m7" x="655.387" y="214.936"/><use href="#m7" x="699.753" y="212.435"/><polyline fill="none" points="344.826,208.961 389.192,214.915 433.558,214.931 477.924,218.156 522.29,213.743 566.656,213.081 611.021,215.024 655.387,216.095 699.753,216.001" stroke="#cc79a7" stroke-width="1.75" stroke-linecap="round" stroke-linejoin="round"/><use href="#m8" x="344.826" y="208.961"/><use href="#m8" x="389.192" y="214.915"/><use href="#m8" x="433.558" y="214.931"/><use href="#m8" x="477.924" y="218.156"/><use href="#m8" x="522.29" y="213.743"/><use href="#m8" x="566.656" y="213.081"/><use href="#m8" x="611.021" y="215.024"/><use href="#m8" x="655.387" y="216.095"/><use href="#m8" x="699.753" y="216.001"/><polyline fill="none" points="344.826,201.164 389.192,305.429 433.558,305.586 477.924,315.488 522.29,315.306 566.656,333.634 611.021,333.56 655.387,333.502 699.753,333.729" stroke="#000000" stroke-width="1.75" stroke-linecap="round" stroke-linejoin="round"/><use href="#m9" x="344.826" y="201.164"/><use href="#m9" x="389.192" y="305.429"/><use href="#m9" x="433.558" y="305.586"/><use href="#m9" x="477.924" y="315.488"/><use href="#m9" x="522.29" y="315.306"/><use href="#m9" x="566.656" y="333.634"/><use href="#m9" x="611.021" y="333.56"/><use href="#m9" x="655.387" y="333.502"/><use href="#m9" x="699.753" y="333.729"/><polyline fill="none" points="78.631,232.046 122.997,235.047 167.363,232.514 211.729,232.592 256.094,247.134 300.46,253.715 344.826,249.405 389.192,251.01 433.558,249.852 477.924,249.437 522.29,248.362 566.656,246.193 611.021,252.47 655.387,254.222 699.753,257.897" stroke="#0072b2" stroke-width="1.75" stroke-linecap="round" stroke-linejoin="round" stroke-dasharray="6 4"/><use href="#m2" x="78.631" y="232.046"/><use href="#m2" x="122.997" y="235.047"/><use href="#m2" x="167.363" y="232.514"/><use href="#m2" x="211.729" y="232.592"/><use href="#m2" x="256.094" y="247.134"/><use href="#m2" x="300.46" y="253.715"/><use href="#m2" x="344.826" y="249.405"/><use href="#m2" x="389.192" y="251.01"/><use href="#m2" x="433.558" y="249.852"/><use href="#m2" x="477.924" y="249.437"/><use href="#m2" x="522.29" y="248.362"/><use href="#m2" x="566.656" y="246.193"/><use href="#m2" x="611.021" y="252.47"/><use href="#m2" x="655.387" y="254.222"/><use href="#m2" x="699.753" y="257.897"/><polyline fill="none" points="522.29,249.652 566.656,246.335 611.021,247.945 655.387,249.315 699.753,249.797" stroke="#d55e00" stroke-width="1.75" stroke-linecap="round" stroke-linejoin="round" stroke-dasharray="6 4"/><use href="#m3" x="522.29" y="249.652"/><use href="#m3" x="566.656" y="246.335"/><use href="#m3" x="611.021" y="247.945"/><use href="#m3" x="655.387" y="249.315"/><use href="#m3" x="699.753" y="249.797"/><polyline fill="none" points="78.631,238.14 122.997,245.5 167.363,261.325 211.729,259.566 256.094,274.086 300.46,279.24 344.826,281.316 389.192,281.404 433.558,282.512 477.924,283.921 522.29,283.265 566.656,281.377 611.021,279.836 655.387,285.312 699.753,288.003" stroke="#009e73" stroke-width="1.75" stroke-linecap="round" stroke-linejoin="round" stroke-dasharray="6 4"/><use href="#m4" x="78.631" y="238.14"/><use href="#m4" x="122.997" y="245.5"/><use href="#m4" x="167.363" y="261.325"/><use href="#m4" x="211.729" y="259.566"/><use href="#m4" x="256.094" y="274.086"/><use href="#m4" x="300.46" y="279.24"/><use href="#m4" x="344.826" y="281.316"/><use href="#m4" x="389.192" y="281.404"/><use href="#m4" x="433.558" y="282.512"/><use href="#m4" x="477.924" y="283.921"/><use href="#m4" x="522.29" y="283.265"/><use href="#m4" x="566.656" y="281.377"/><use href="#m4" x="611.021" y="279.836"/><use href="#m4" x="655.387" y="285.312"/><use href="#m4" x="699.753" y="288.003"/><polyline fill="none" points="78.631,278.678 122.997,282.309 167.363,281.261 211.729,283.217 256.094,293.66 300.46,304.762 344.826,306.083 389.192,300.865 433.558,304.357 477.924,302.358 522.29,303.37 566.656,302.056 611.021,300.474 655.387,307.063 699.753,303.813" stroke="#f0e442" stroke-width="1.75" stroke-linecap="round" stroke-linejoin="round" stroke-dasharray="6 4"/><use href="#m5" x="78.631" y="278.678"/><use href="#m5" x="122.997" y="282.309"/><use href="#m5" x="167.363" y="281.261"/><use href="#m5" x="211.729" y="283.217"/><use href="#m5" x="256.094" y="293.66"/><use href="#m5" x="300.46" y="304.762"/><use href="#m5" x="344.826" y="306.083"/><use href="#m5" x="389.192" y="300.865"/><use href="#m5" x="433.558" y="304.357"/><use href="#m5" x="477.924" y="302.358"/><use href="#m5" x="522.29" y="303.37"/><use href="#m5" x="566.656" y="302.056"/><use href="#m5" x="611.021" y="300.474"/><use href="#m5" x="655.387" y="307.063"/><use href="#m5" x="699.753" y="303.813"/><polyline fill="none" points="344.826,362.133 389.192,359.671 433.558,361.985 477.924,360.764 522.29,359.975 566.656,361.858 611.021,361.825 655.387,361.739 699.753,361.871" stroke="#56b4e9" stroke-width="1.75" stroke-linecap="round" stroke-linejoin="round" stroke-dasharray="6 4"/><use href="#m6" x="344.826" y="362.133"/><use href="#m6" x="389.192" y="359.671"/><use href="#m6" x="433.558" y="361.985"/><use href="#m6" x="477.924" y="360.764"/><use href="#m6" x="522.29" y="359.975"/><use href="#m6" x="566.656" y="361.858"/><use href="#m6" x="611.021" y="361.825"/><use href="#m6" x="655.387" y="361.739"/><use href="#m6" x="699.753" y="361.871"/></g><polyline fill="none" points="735.936,129.662 747.936,129.662" stroke="#0072b2" stroke-width="1.75" stroke-linecap="round"/><text x="753.936" y="129.662" font-family="sans-serif" font-size="12" dominant-baseline="central" fill="#333333">contours-3000</text><polyline fill="none" points="735.936,146.762 747.936,146.762" stroke="#d55e00" stroke-width="1.75" stroke-linecap="round"/><text x="753.936" y="146.762" font-family="sans-serif" font-size="12" dominant-baseline="central" fill="#333333">glyphs-30000-uncached</text><polyline fill="none" points="735.936,163.863 747.936,163.863" stroke="#009e73" stroke-width="1.75" stroke-linecap="round"/><text x="753.936" y="163.863" font-family="sans-serif" font-size="12" dominant-baseline="central" fill="#333333">gradients-200</text><polyline fill="none" points="735.936,180.963 747.936,180.963" stroke="#f0e442" stroke-width="1.75" stroke-linecap="round"/><text x="753.936" y="180.963" font-family="sans-serif" font-size="12" dominant-baseline="central" fill="#333333">hatch-2000-0.35mm</text><polyline fill="none" points="735.936,198.063 747.936,198.063" stroke="#56b4e9" stroke-width="1.75" stroke-linecap="round"/><text x="753.936" y="198.063" font-family="sans-serif" font-size="12" dominant-baseline="central" fill="#333333">hatch-2000-hairline</text><polyline fill="none" points="735.936,215.163 747.936,215.163" stroke="#e69f00" stroke-width="1.75" stroke-linecap="round"/><text x="753.936" y="215.163" font-family="sans-serif" font-size="12" dominant-baseline="central" fill="#333333">hatch-2000-maskclip</text><polyline fill="none" points="735.936,232.263 747.936,232.263" stroke="#cc79a7" stroke-width="1.75" stroke-linecap="round"/><text x="753.936" y="232.263" font-family="sans-serif" font-size="12" dominant-baseline="central" fill="#333333">images-60</text><polyline fill="none" points="735.936,249.363 747.936,249.363" stroke="#000000" stroke-width="1.75" stroke-linecap="round"/><text x="753.936" y="249.363" font-family="sans-serif" font-size="12" dominant-baseline="central" fill="#333333">layers-24</text><polyline fill="none" points="735.936,266.463 747.936,266.463" stroke="#0072b2" stroke-width="1.75" stroke-linecap="round" stroke-dasharray="6 4"/><text x="753.936" y="266.463" font-family="sans-serif" font-size="12" dominant-baseline="central" fill="#333333">mixed-drawing</text><polyline fill="none" points="735.936,283.563 747.936,283.563" stroke="#d55e00" stroke-width="1.75" stroke-linecap="round" stroke-dasharray="6 4"/><text x="753.936" y="283.563" font-family="sans-serif" font-size="12" dominant-baseline="central" fill="#333333">patterns-200</text><polyline fill="none" points="735.936,300.663 747.936,300.663" stroke="#009e73" stroke-width="1.75" stroke-linecap="round" stroke-dasharray="6 4"/><text x="753.936" y="300.663" font-family="sans-serif" font-size="12" dominant-baseline="central" fill="#333333">short-20000-0.35mm</text><polyline fill="none" points="735.936,317.763 747.936,317.763" stroke="#f0e442" stroke-width="1.75" stroke-linecap="round" stroke-dasharray="6 4"/><text x="753.936" y="317.763" font-family="sans-serif" font-size="12" dominant-baseline="central" fill="#333333">short-20000-hairline</text><polyline fill="none" points="735.936,334.863 747.936,334.863" stroke="#56b4e9" stroke-width="1.75" stroke-linecap="round" stroke-dasharray="6 4"/><text x="753.936" y="334.863" font-family="sans-serif" font-size="12" dominant-baseline="central" fill="#333333">text-30000-cached</text></svg>